# exported by https://3dviewer.net
mtllib model.mtl
g leg-left
v 0 0 0.2
v 0.4 0 -0.2
v 0.4 0 0.2
v 0 0 -0.2
v 0.4 1 -0.2
v 0 1 0.2
v 0.4 1 0.2
v 0 1 -0.2
vn 0 -1 0
vn 0.5773503 0.5773503 -0.5773503
vn -0.5773503 0.5773503 0.5773503
vn 0.5773503 0.5773503 0.5773503
vn -0.5773503 0.5773503 -0.5773503
vn 0 0 1
vn 1 0 0
vn -1 0 0
vn 0 0 -1
vt -0.1847707 -0.7844663
vt -0.1276279 -0.8416091
vt -0.1276279 -0.7844663
vt -0.1847707 -0.8416091
vt -0.1901652 -0.7838295
vt -0.2473081 -0.8409724
vt -0.1901652 -0.8409724
vt -0.2473081 -0.7838295
vt -0.1274172 -0.8502291
vt -0.1845601 -0.9930862
vt -0.1274172 -0.9930862
vt -0.1845601 -0.8502291
vt -0.1224074 -0.8502298
vt -0.06526454 -0.9930869
vt -0.06526454 -0.8502298
vt -0.1224074 -0.9930869
vt -0.1899023 -0.9930562
vt -0.2470451 -0.8501991
vt -0.2470451 -0.9930562
vt -0.1899023 -0.8501991
vt -0.002955765 -0.8502362
vt -0.06009862 -0.9930934
vt -0.002955765 -0.9930934
vt -0.06009862 -0.8502362
usemtl Material
f 1/1/1 2/2/1 3/3/1
f 2/2/1 1/1/1 4/4/1
f 5/5/2 6/6/3 7/7/4
f 6/6/3 5/5/2 8/8/5
f 7/9/4 1/10/6 3/11/6
f 1/10/6 7/9/4 6/12/3
f 7/13/4 2/14/7 5/15/2
f 2/14/7 7/13/4 3/16/7
f 1/17/8 8/18/5 4/19/8
f 8/18/5 1/17/8 6/20/3
f 8/21/5 2/22/9 4/23/9
f 2/22/9 8/21/5 5/24/2
g leg-right
v -0.4 0 0.2
v 0 0 -0.2
v 0 0 0.2
v -0.4 0 -0.2
v 0 1 -0.2
v -0.4 1 0.2
v 0 1 0.2
v -0.4 1 -0.2
vn 0 -1 0
vn 0.5773503 0.5773503 -0.5773503
vn -0.5773503 0.5773503 0.5773503
vn 0.5773503 0.5773503 0.5773503
vn -0.5773503 0.5773503 -0.5773503
vn 0 0 1
vn 1 0 0
vn -1 0 0
vn 0 0 -1
vt -0.4663498 -0.7841768
vt -0.4092069 -0.8413196
vt -0.4092069 -0.7841768
vt -0.4663498 -0.8413196
vt -0.4713403 -0.7843308
vt -0.5284832 -0.8414736
vt -0.4713403 -0.8414736
vt -0.5284832 -0.7843308
vt -0.4087348 -0.8502496
vt -0.4658776 -0.9931068
vt -0.4087348 -0.9931068
vt -0.4658776 -0.8502496
vt -0.4033048 -0.8502591
vt -0.346162 -0.9931163
vt -0.346162 -0.8502591
vt -0.4033048 -0.9931163
vt -0.4711036 -0.9930971
vt -0.5282465 -0.8502399
vt -0.5282465 -0.9930971
vt -0.4711036 -0.8502399
vt -0.283694 -0.8502347
vt -0.3408369 -0.9930919
vt -0.283694 -0.9930919
vt -0.3408369 -0.8502347
f 9/25/10 10/26/10 11/27/10
f 10/26/10 9/25/10 12/28/10
f 13/29/11 14/30/12 15/31/13
f 14/30/12 13/29/11 16/32/14
f 15/33/13 9/34/15 11/35/15
f 9/34/15 15/33/13 14/36/12
f 15/37/13 10/38/16 13/39/11
f 10/38/16 15/37/13 11/40/16
f 9/41/17 16/42/14 12/43/17
f 16/42/14 9/41/17 14/44/12
f 16/45/14 10/46/18 12/47/18
f 10/46/18 16/45/14 13/48/11
g torso
v 0.4 1 0.3
v -0.4 1 -0.3
v 0.4 1 -0.3
v -0.4 1 0.3
v -0.4 1.9 -0.3
v 0.4 1.9 -0.3
v 0.4 1.9 0.3
v -0.4 1.9 0.3
vn 0 -1 0
vn 0 0 -1
vn 1 0 0
vn 0 0 1
vn 0 1 0
vn -1 0 0
vt 0.213036 -0.9112126
vt 0.09875025 -0.9969269
vt 0.213036 -0.9969269
vt 0.09875025 -0.9112126
vt 0.4323702 -0.7715222
vt 0.3180845 -0.9000936
vt 0.4323702 -0.9000936
vt 0.3180845 -0.7715222
vt 0.222778 -0.7714589
vt 0.3084922 -0.9000304
vt 0.3084922 -0.7714589
vt 0.222778 -0.9000304
vt 0.2133337 -0.7714641
vt 0.09904797 -0.9000356
vt 0.2133337 -0.9000356
vt 0.09904797 -0.7714641
vt 0.09931722 -0.6762814
vt 0.2136029 -0.7619957
vt 0.2136029 -0.6762814
vt 0.09931722 -0.7619957
vt 0.004429361 -0.9000158
vt 0.09014364 -0.7714444
vt 0.004429361 -0.7714444
vt 0.09014364 -0.9000158
f 17/49/19 18/50/19 19/51/19
f 18/50/19 17/49/19 20/52/19
f 21/53/20 19/54/20 18/55/20
f 19/54/20 21/53/20 22/56/20
f 23/57/21 19/58/21 22/59/21
f 19/58/21 23/57/21 17/60/21
f 23/61/22 20/62/22 17/63/22
f 20/62/22 23/61/22 24/64/22
f 21/65/23 23/66/23 22/67/23
f 23/66/23 21/65/23 24/68/23
f 18/69/24 24/70/24 21/71/24
f 24/70/24 18/69/24 20/72/24
g arm-left
v 0.8 1.9 0.1
v 0.8 0.8 -0.3
v 0.8 1.9 -0.3
v 0.8 0.8 0.1
v 0.4 0.8 -0.3
v 0.4 1.9 -0.3
v 0.4 0.8 0.1
v 0.4 1.9 0.1
vn 0.5773503 0.5773503 0.5773503
vn 1 0 0
vn 0.5773503 0.5773503 -0.5773503
vn 0 0 -1
vn -0.5773503 0.5773503 -0.5773503
vn 0 0 1
vn -0.5773503 0.5773503 0.5773503
vn -1 0 0
vn 0 -1 0
vt 0.8780273 -0.5885459
vt 0.9351701 -0.7456887
vt 0.9351701 -0.5885459
vt 0.8780273 -0.7456887
vt 0.9976313 -0.7456869
vt 0.9404884 -0.588544
vt 0.9404884 -0.7456869
vt 0.9976313 -0.588544
vt 0.8728131 -0.5885182
vt 0.8156703 -0.745661
vt 0.8728131 -0.745661
vt 0.8156703 -0.5885182
vt 0.8099404 -0.7456434
vt 0.7527975 -0.5885006
vt 0.7527975 -0.7456434
vt 0.8099404 -0.5885006
vt 0.8100958 -0.5245736
vt 0.752953 -0.5817164
vt 0.8100958 -0.5817164
vt 0.752953 -0.5245736
vt 0.8151181 -0.5239998
vt 0.872261 -0.5811426
vt 0.872261 -0.5239998
vt 0.8151181 -0.5811426
f 25/73/25 26/74/26 27/75/27
f 26/74/26 25/73/25 28/76/26
f 29/77/28 27/78/27 26/79/28
f 27/78/27 29/77/28 30/80/29
f 25/81/25 31/82/30 28/83/30
f 31/82/30 25/81/25 32/84/31
f 31/85/32 30/86/29 29/87/32
f 30/86/29 31/85/32 32/88/31
f 27/89/27 32/90/31 25/91/25
f 32/90/31 27/89/27 30/92/29
f 31/93/33 26/94/33 28/95/33
f 26/94/33 31/93/33 29/96/33
g arm-right
v -0.4 1.9 0.1
v -0.4 0.8 -0.3
v -0.4 1.9 -0.3
v -0.4 0.8 0.1
v -0.8000001 0.8 -0.3
v -0.8 1.9 -0.3
v -0.8 1.9 0.1
v -0.8000001 0.8 0.1
vn 0.5773503 0.5773503 0.5773503
vn 1 0 0
vn 0.5773503 0.5773503 -0.5773503
vn 0 0 -1
vn -0.5773503 0.5773503 -0.5773503
vn -0.5773503 0.5773503 0.5773503
vn 0 -1 0
vn -1 0 0
vn 0 0 1
vt 0.5968586 -0.5884858
vt 0.6540014 -0.7456287
vt 0.6540014 -0.5884858
vt 0.5968586 -0.7456287
vt 0.7166106 -0.7456114
vt 0.6594678 -0.5884685
vt 0.6594678 -0.7456114
vt 0.7166106 -0.5884685
vt 0.5284317 -0.524798
vt 0.4712888 -0.5819408
vt 0.5284317 -0.5819408
vt 0.4712888 -0.524798
vt 0.5334417 -0.5242404
vt 0.5905846 -0.5813833
vt 0.5905846 -0.5242404
vt 0.5334417 -0.5813833
vt 0.5284253 -0.745617
vt 0.4712825 -0.5884741
vt 0.4712825 -0.745617
vt 0.5284253 -0.5884741
vt 0.5914533 -0.5884908
vt 0.5343104 -0.7456337
vt 0.5914533 -0.7456337
vt 0.5343104 -0.5884908
f 33/97/34 34/98/35 35/99/36
f 34/98/35 33/97/34 36/100/35
f 37/101/37 35/102/36 34/103/37
f 35/102/36 37/101/37 38/104/38
f 35/105/36 39/106/39 33/107/34
f 39/106/39 35/105/36 38/108/38
f 40/109/40 34/110/40 36/111/40
f 34/110/40 40/109/40 37/112/40
f 40/113/41 38/114/38 37/115/41
f 38/114/38 40/113/41 39/116/39
f 33/117/34 40/118/42 36/119/42
f 40/118/42 33/117/34 39/120/39
g head
v -0.4 1.9 0.4
v -0.4 2.7 -0.4
v -0.4 1.9 -0.4
v -0.4 2.7 0.4
v 0.4 2.7 0.4
v 0.4 2.7 -0.4
v 0.4 1.9 -0.4
v 0.4 1.9 0.4
vn -0.07071068 0 0.07071068
vn -0.1 0 0
vn -0.05773503 0.05773503 0.05773503
vn 0 0.1 0
vn 0.05773503 0.05773503 0.05773503
vn 0.1 0 0
vn 0.07071068 0 0.07071068
vn 0 0 -0.1
vn 0 -0.1 0
vt 0.1322015 -0.2436106
vt 0.01791575 -0.1293249
vt 0.01791575 -0.2436106
vt 0.1322015 -0.1293249
vt 0.1302546 -0.005625569
vt 0.2445403 -0.1199113
vt 0.2445403 -0.005625569
vt 0.1302546 -0.1199113
vt 0.2448605 -0.1292631
vt 0.3591462 -0.2435488
vt 0.3591462 -0.1292631
vt 0.2448605 -0.2435488
vt 0.2452101 -0.1293434
vt 0.1309243 -0.2436291
vt 0.1309243 -0.1293434
vt 0.4943026 -0.1292282
vt 0.3800169 -0.2435139
vt 0.4943026 -0.2435139
vt 0.3800169 -0.1292282
vt 0.2440955 -0.2512999
vt 0.1298098 -0.3655856
vt 0.2440955 -0.3655856
vt 0.1298098 -0.2512999
f 41/121/43 42/122/44 43/123/44
f 42/122/44 41/121/43 44/124/45
f 42/125/46 45/126/47 46/127/46
f 45/126/47 42/125/46 44/128/45
f 45/129/47 47/130/48 46/131/48
f 47/130/48 45/129/47 48/132/49
f 45/133/47 41/134/43 48/132/49
f 41/134/43 45/133/47 44/135/45
f 42/136/50 47/137/50 43/138/50
f 47/137/50 42/136/50 46/139/50
f 48/140/51 43/141/51 47/142/51
f 43/141/51 48/140/51 41/143/51
